HIERARCHY
ROOT Bip001_Pelvis
{
  OFFSET 7.937 94.8971 -8.5489
  CHANNELS 6 Xposition Yposition Zposition Zrotation Xrotation Yrotation
  JOINT Bip001_Spine
  {
    OFFSET 1.44608e-005 10.4157 -0.0118244
    CHANNELS 3 Zrotation Xrotation Yrotation
    JOINT Bip001_L_Thigh
    {
      OFFSET 11.2582 -10.4157 0.0118432
      CHANNELS 3 Zrotation Xrotation Yrotation
      JOINT Bip001_L_Calf
      {
        OFFSET -0.720717 -44.8687 0.366937
        CHANNELS 3 Zrotation Xrotation Yrotation
        JOINT Bip001_L_Foot
        {
          OFFSET -0.664439 -41.3745 -3.62995
          CHANNELS 3 Zrotation Xrotation Yrotation
          JOINT Bip001_L_Toe0
          {
            OFFSET 0.0541047 -10.4146 13.4033
            CHANNELS 3 Zrotation Xrotation Yrotation
            End Site
            {
              OFFSET -1.04503e-005 0 7.70137
            }
          }
        }
      }
    }
    JOINT Bip001_R_Thigh
    {
      OFFSET -11.2582 -10.4156 0.0118122
      CHANNELS 3 Zrotation Xrotation Yrotation
      JOINT Bip001_R_Calf
      {
        OFFSET 0.72059 -44.8687 0.36676
        CHANNELS 3 Zrotation Xrotation Yrotation
        JOINT Bip001_R_Foot
        {
          OFFSET 0.664321 -41.3745 -3.62979
          CHANNELS 3 Zrotation Xrotation Yrotation
          JOINT Bip001_R_Toe0
          {
            OFFSET -0.05417 -10.4146 13.4033
            CHANNELS 3 Zrotation Xrotation Yrotation
            End Site
            {
              OFFSET -1.04873e-005 0 7.70137
            }
          }
        }
      }
    }
    JOINT Bip001_Spine1
    {
      OFFSET 1.90638e-005 14.8539 1.10727
      CHANNELS 3 Zrotation Xrotation Yrotation
      JOINT Bip001_Spine2
      {
        OFFSET 2.28934e-005 14.7848 -1.7233
        CHANNELS 3 Zrotation Xrotation Yrotation
        JOINT Bip001_Neck
        {
          OFFSET 2.24514e-005 15.6905 -0.498826
          CHANNELS 3 Zrotation Xrotation Yrotation
          JOINT Bip001_L_Clavicle
          {
            OFFSET 6.17691 -0.000591152 0.00852867
            CHANNELS 3 Zrotation Xrotation Yrotation
            JOINT Bip001_L_UpperArm
            {
              OFFSET 11.773 -0.0611878 0.00197697
              CHANNELS 3 Zrotation Xrotation Yrotation
              JOINT Bip001_L_Forearm
              {
                OFFSET 26.4515 0.0817568 -2.19579
                CHANNELS 3 Zrotation Xrotation Yrotation
                JOINT Bip001_L_Hand
                {
                  OFFSET 32.8677 0.156744 1.67112
                  CHANNELS 3 Zrotation Xrotation Yrotation
                  JOINT Bip001_L_Finger0
                  {
                    OFFSET 6.16268 -2.25226 6.01674
                    CHANNELS 3 Zrotation Xrotation Yrotation
                    End Site
                    {
                      OFFSET 4.30499 -1.46662 0.618148
                    }
                  }
                  JOINT Bip001_L_Finger1
                  {
                    OFFSET 11.2957 -0.718374 -0.201963
                    CHANNELS 3 Zrotation Xrotation Yrotation
                    End Site
                    {
                      OFFSET 6.31952 -0.405163 -0.0802303
                    }
                  }
                }
              }
            }
          }
          JOINT Bip001_R_Clavicle
          {
            OFFSET -6.17691 -0.000574027 0.00851165
            CHANNELS 3 Zrotation Xrotation Yrotation
            JOINT Bip001_R_UpperArm
            {
              OFFSET -11.773 -0.0611516 0.00194365
              CHANNELS 3 Zrotation Xrotation Yrotation
              JOINT Bip001_R_Forearm
              {
                OFFSET -26.4514 0.0822334 -2.19736
                CHANNELS 3 Zrotation Xrotation Yrotation
                JOINT Bip001_R_Hand
                {
                  OFFSET -32.8677 0.156817 1.67144
                  CHANNELS 3 Zrotation Xrotation Yrotation
                  JOINT Bip001_R_Finger0
                  {
                    OFFSET -6.1627 -2.25224 6.0167
                    CHANNELS 3 Zrotation Xrotation Yrotation
                    End Site
                    {
                      OFFSET -4.30499 -1.46662 0.618134
                    }
                  }
                  JOINT Bip001_R_Finger1
                  {
                    OFFSET -11.2958 -0.718344 -0.201994
                    CHANNELS 3 Zrotation Xrotation Yrotation
                    End Site
                    {
                      OFFSET -6.31952 -0.405146 -0.0802475
                    }
                  }
                }
              }
            }
          }
          JOINT Bip001_Head
          {
            OFFSET 1.11782e-005 11.4912 2.09908
            CHANNELS 3 Zrotation Xrotation Yrotation
            End Site
            {
              OFFSET 2.95144e-005 21.2823 -2.83069e-005
            }
          }
        }
      }
    }
  }
}
MOTION
Frames:	6
Frame Time:	0.04
6.33166 95.5807 -7.41643 -0.731871 -1.77207 -0.600054 -0.127109 0.273587 0.129936 7.23362 -5.08014 9.69323 -0.787574 14.1729 -1.01231 -4.29398 -6.46197 0.0830558 0.725767 -9.76113 0.521475 -6.37484 -4.05733 0.478099 0.821018 14.1362 2.99172 0.179162 -8.09888 -10.3695 -1.17742 -11.5226 1.07695 -0.446356 0.546725 0.250449 -0.446349 0.546718 0.250446 -1.25739 -0.745463 -9.19109 -26.7138 2.87991 -6.11068 -49.8481 39.0639 4.17248 12.7008 2.16403 -25.0233 -2.96578 -0.0618706 -1.01844 -3.18055e-015 3.18055e-015 1.59028e-015 -0 -3.18056e-015 -0 18.0394 9.57461 28.4293 15.4879 -17.0228 43.8298 -38.1452 0.261094 44.3521 -47.223 4.20267 -4.56334 -6.46568e-033 -9.93923e-016 -3.72721e-016 7.95139e-016 -7.95139e-016 -4.82053e-015 0.145589 4.40164 -9.33013 
6.25537 95.5811 -7.46452 -0.774378 -1.74047 -0.732983 -0.0708078 0.255694 0.17014 7.26689 -5.12771 9.27538 -0.87551 14.2156 -0.450087 -4.37356 -6.45039 0.051962 0.721954 -9.763 0.500441 -6.25976 -4.15131 0.333689 0.608954 14.1877 3.15219 0.18726 -8.06373 -10.2635 -1.14295 -11.5216 1.0679 -0.329526 0.510926 0.330489 -0.329525 0.510927 0.330489 -1.48 -0.750123 -9.03553 -26.743 2.90177 -5.9759 -50.1412 39.4841 4.723 12.7505 2.60681 -24.7542 -3.21429 -0.0595063 -1.14556 6.36111e-015 -3.18055e-015 1.59028e-015 3.18055e-015 -3.18056e-015 -0 17.6777 9.3543 28.3883 17.6358 -18.4291 45.1654 -32.736 -3.82289 45.2349 -43.2555 5.19041 -0.726792 -1.59028e-015 1.59028e-015 5.96354e-015 -1.59028e-015 1.59028e-015 2.38542e-015 0.40812 4.46544 -9.30914 
6.20487 95.5851 -7.48862 -0.84973 -1.81866 -0.971702 -0.062665 0.217627 0.24107 7.36378 -4.99349 9.33146 -0.859241 14.2451 -0.425621 -4.41927 -6.48498 0.0961067 0.724352 -9.76525 0.517343 -6.15012 -4.0759 0.355022 0.567186 14.1403 3.18346 0.198894 -7.98706 -10.1507 -1.15201 -11.5207 1.0785 -0.316324 0.434622 0.472089 -0.31633 0.434629 0.472096 -0.732607 -0.080264 -8.97416 -26.8441 2.30454 -6.61443 -51.2873 39.6404 5.7351 12.4537 2.40555 -24.4063 -3.29639 -0.16334 -0.995189 3.18055e-015 3.18055e-015 -0 3.18055e-015 3.18056e-015 -1.59028e-015 16.1975 8.14509 28.0741 19.3035 -18.4226 45.3962 -32.2886 -4.67945 46.4733 -33.6936 7.9477 -6.05244 -3.18055e-015 1.98785e-015 1.19271e-015 -3.18055e-015 1.98785e-015 3.57812e-015 -0.116437 4.58783 -8.91734 
6.17267 95.5906 -7.53551 -0.902123 -1.93493 -1.19227 -0.0337085 0.248127 0.274486 7.41884 -4.90008 8.76895 -1.04076 14.246 0.172293 -4.42322 -6.49298 0.248896 0.724388 -9.76778 0.525681 -6.09577 -4.04688 0.488699 0.56861 14.0933 3.2111 0.169666 -7.90161 -10.1283 -1.14727 -11.5199 1.0842 -0.258 0.495663 0.540677 -0.258 0.495664 0.540678 -0.562392 -0.0961389 -8.60995 -27.2598 2.2886 -6.41778 -51.2493 40.2517 5.79436 12.449 3.01329 -23.5555 -3.77054 -0.178103 -1.10756 1.76556e-031 -6.36111e-015 1.59028e-015 8.82782e-032 -3.18056e-015 1.59028e-015 15.6212 7.78144 27.4074 16.8561 -18.9728 47.2365 -28.0821 -3.1852 42.8147 -33.3405 6.83538 -7.61844 3.18055e-015 0 4.96962e-016 3.18055e-015 7.95139e-016 2.5842e-015 -0.0409774 5.3396 -8.52092 
6.16922 95.5901 -7.58066 -0.905713 -2.0702 -1.3121 -0.0148304 0.263802 0.26869 7.40487 -4.78147 9.0021 -0.988502 14.2525 0.104883 -4.43362 -6.47787 0.188459 0.721624 -9.77044 0.521372 -6.10565 -4.00801 0.579098 0.555438 14.1381 3.26876 0.158135 -7.87685 -10.1207 -1.14405 -11.5191 1.06402 -0.214192 0.527131 0.527178 -0.214188 0.527124 0.527171 -0.461449 0.407698 -8.03053 -27.8291 1.99627 -6.81945 -51.1557 40.1442 6.25414 12.41 3.2955 -23.047 -4.1431 -0.153935 -0.875713 6.36111e-015 3.18055e-015 -3.18055e-015 3.18055e-015 0 -1.59028e-015 14.9127 6.82725 26.8463 16.1762 -16.5939 45.0487 -29.0557 -5.23953 44.4963 -32.6979 7.73325 -7.91832 6.36111e-015 1.98785e-016 -2.18663e-015 6.36111e-015 -5.96354e-016 -2.28602e-015 0.0767588 5.71502 -7.96703 
6.16352 95.5872 -7.62564 -0.920205 -2.19478 -1.31623 -0.0318723 0.336535 0.302307 7.45743 -4.78769 9.39854 -0.913175 14.326 -0.103502 -4.44746 -6.45957 -0.0073325 0.714099 -9.77851 0.484632 -6.07442 -3.99856 0.55773 0.55859 14.159 3.33478 0.126042 -7.85808 -10.1682 -1.13258 -11.5183 1.03748 -0.251807 0.672436 0.595666 -0.251803 0.672428 0.595659 -0.322201 0.456479 -7.54036 -28.2165 2.14085 -7.18275 -50.7013 40.0102 6.15883 12.0639 3.71449 -22.3128 -4.10704 -0.140201 -0.873407 3.18055e-015 -9.54166e-015 -1.59028e-015 -0 -9.54167e-015 -0 15.576 6.80531 25.9964 16.9306 -16.8804 43.9464 -31.3602 -3.47093 47.2611 -33.7133 7.42094 -7.60242 3.18055e-015 9.93923e-016 2.68359e-015 -2.17247e-032 1.78906e-015 6.95746e-016 0.228008 6.34911 -7.48355 
